Coordinates
version=1
nRows=26
nColumns=24
inDegrees=yes

Units are S.I. units (second, meters, Newtons, ...)
If the header above contains a line with 'inDegrees', this indicates whether rotational values are in degrees (yes) or radians (no).

endheader
time	pelvis_tilt	pelvis_list	pelvis_rotation	pelvis_tx	pelvis_ty	pelvis_tz	hip_flexion_r	hip_adduction_r	hip_rotation_r	knee_angle_r	ankle_angle_r	subtalar_angle_r	mtp_angle_r	hip_flexion_l	hip_adduction_l	hip_rotation_l	knee_angle_l	ankle_angle_l	subtalar_angle_l	mtp_angle_l	lumbar_extension	lumbar_bending	lumbar_rotation
      0.40000000	      4.80014661	     -1.97966685	     -1.08359363	      0.60145972	      1.04504438	     -0.02138039	     20.20230857	     -2.65806557	     -6.37792314	    -55.19590865	      2.72645420	     -0.00000299	      0.00000000	     -5.80217343	      1.17979783	     -1.19592869	     -7.29228413	      5.35734641	     -0.00000024	      0.00000000	    -16.88937388	     -0.85611962	     -4.71726393
      0.41700000	      4.79161171	     -1.86726889	     -0.93995057	      0.59875752	      1.04416407	     -0.02273122	     20.67036580	     -2.85105878	     -6.85716211	    -50.32248290	      2.73733872	     -0.00000356	      0.00000000	     -7.29232944	      1.38672437	     -1.02519898	     -6.29146586	      5.58976699	     -0.00000020	      0.00000000	    -17.20654352	     -0.80851241	     -5.06547412
      0.43300000	      4.70094326	     -1.52877848	     -0.99843248	      0.59649288	      1.04258339	     -0.02287316	     21.00263003	     -3.21190633	     -7.41742298	    -44.99636962	      2.63380253	     -0.00000426	      0.00000000	     -8.73351573	      1.80314820	     -1.05803629	     -5.27168704	      5.84890317	     -0.00000014	      0.00000000	    -17.22661652	     -1.13435544	     -5.07890178
      0.45000000	      4.83302720	     -1.06209724	     -0.87719673	      0.59435833	      1.04086252	     -0.02311511	     20.82131346	     -3.71046103	     -8.25245932	    -39.21943194	      2.36691067	     -0.00000499	      0.00000000	    -10.33078991	      2.32086767	     -0.86389658	     -4.41809120	      6.19522425	     -0.00000015	      0.00000000	    -17.46275211	     -1.51620958	     -5.20893297
      0.46700000	      4.69310142	     -0.36283566	     -0.83416991	      0.59185168	      1.03826788	     -0.02316027	     20.81266134	     -4.29621207	     -8.96124282	    -33.16488563	      1.93958841	     -0.00000504	      0.00000000	    -11.50071167	      3.07553462	     -0.70225196	     -3.80243923	      6.60264345	     -0.00000002	      0.00000000	    -17.41264501	     -2.21181586	     -5.36881416
      0.48300000	      4.62511231	     -0.05674879	     -0.39475269	      0.59054301	      1.03583553	     -0.02286915	     20.21088897	     -4.39002263	     -9.99060577	    -26.50519324	      1.38763694	     -0.00000463	      0.00000000	    -12.98286922	      3.26188592	     -0.16559446	     -2.87054485	      6.93693572	     -0.00000004	      0.00000000	    -17.39509221	     -2.41136192	     -5.69671276
      0.50000000	      4.49009291	      0.39430436	     -0.38177151	      0.58954669	      1.03279446	     -0.02149695	     19.67935393	     -4.31276197	    -10.09095847	    -19.91070827	      0.90788814	     -0.00000389	      0.00000000	    -14.39667795	      3.64588334	     -0.04659585	     -2.02675433	      7.28197070	      0.00000002	      0.00000000	    -17.23496779	     -2.92444530	     -5.49184301
      0.51700000	      4.34747457	      0.96133031	     -0.29071508	      0.58825219	      1.02924260	     -0.02071989	     19.19387565	     -4.37027018	     -9.54502154	    -13.70031357	      0.62706912	     -0.00000285	      0.00000000	    -15.68138795	      4.15238222	      0.22419721	     -1.41054288	      7.70479136	      0.00000009	      0.00000000	    -17.11960353	     -3.40035023	     -5.64936838
      0.53300000	      4.17997816	      1.52737932	      0.02724000	      0.58722194	      1.02532519	     -0.02021493	     18.71391649	     -4.56831362	     -8.66047934	     -8.13049235	      0.64310374	     -0.00000182	      0.00000000	    -16.82269914	      4.57581629	      0.78069935	     -1.07702930	      8.27129487	      0.00000021	      0.00000000	    -16.95287586	     -3.80260684	     -5.79105516
      0.55000000	      4.09718593	      2.12160929	     -0.06574524	      0.58676149	      1.02134516	     -0.01932292	     18.27196860	     -4.80240153	     -7.12632282	     -3.50580769	      0.89321940	     -0.00000103	      0.00000000	    -18.13234441	      5.13181008	      0.97121332	     -0.66649420	      8.71502185	      0.00000027	      0.00000000	    -16.82955599	     -4.22148402	     -5.82972972
      0.56700000	      4.01817211	      2.56375942	     -0.07537027	      0.58588523	      1.01741682	     -0.01859412	     18.20004050	     -5.04619717	     -5.68960068	     -0.53608644	      1.39521399	     -0.00000069	      0.00000000	    -19.20248715	      5.49641695	      1.29028338	     -0.72192335	      9.35507467	      0.00000047	      0.00000000	    -16.74574434	     -4.45973962	     -5.68242372
      0.58300000	      3.87324100	      2.88489800	      0.57689379	      0.58427862	      1.01394936	     -0.01841565	     18.34173898	     -5.41532232	     -5.29982970	      0.98402123	      1.70159333	     -0.00000034	      0.00000000	    -19.76252957	      5.49391197	      2.18040286	     -1.58287292	     10.21096311	      0.00000071	      0.00000000	    -16.86282005	     -4.28811467	     -6.01593788
      0.60000000	      3.86320338	      2.90124715	      0.63254634	      0.58494224	      1.01122047	     -0.01654393	     18.59545470	     -5.25035435	     -4.79101771	      0.85911788	      1.91564382	     -0.00000047	      0.00000000	    -20.68915608	      5.28119960	      2.44063618	     -2.21709572	     10.79393299	      0.00000088	      0.00000000	    -16.71081273	     -4.06611207	     -5.87690060
      0.61700000	      3.76475454	      2.64937747	      0.90976694	      0.58553793	      1.00888522	     -0.01415128	     19.25659310	     -4.85635009	     -4.83750539	     -0.87039496	      1.66709147	     -0.00000092	      0.00000000	    -21.19145757	      4.67543315	      2.77914746	     -3.45280646	     11.50376294	      0.00000119	      0.00000000	    -16.62165929	     -3.54861651	     -5.96924876
      0.63300000	      3.72802323	      2.61025791	      1.44221292	      0.58649020	      1.00734128	     -0.01174942	     19.96517359	     -4.77832657	     -5.19080021	     -3.60974761	      1.01838566	     -0.00000160	      0.00000000	    -21.56746487	      4.17295813	      3.45814466	     -5.03446899	     11.99166857	      0.00000155	      0.00000000	    -16.60127354	     -3.19957153	     -6.26386518
      0.65000000	      3.59799614	      2.45680760	      1.93081455	      0.58798852	      1.00607031	     -0.00874185	     20.78069737	     -4.58151479	     -5.65753367	     -6.81160590	      0.01209654	     -0.00000220	      0.00000000	    -21.73843232	      3.55713631	      4.10907934	     -6.82283546	     12.30384332	      0.00000197	      0.00000000	    -16.37183139	     -2.81370801	     -6.63516172
      0.66700000	      3.46017864	      2.39912165	      2.31937912	      0.58993677	      1.00549469	     -0.00623209	     21.48074583	     -4.53283411	     -5.94073663	     -9.99575311	     -1.09305791	     -0.00000261	      0.00000000	    -21.67999749	      3.15618908	      4.74398023	     -9.04960368	     12.30964932	      0.00000242	      0.00000000	    -16.10042473	     -2.31338776	     -6.80960965
      0.68300000	      3.53431462	      2.35420471	      2.44287326	      0.59162097	      1.00566743	     -0.00340929	     22.10158209	     -4.44362356	     -5.89552283	    -13.55665085	     -1.69894734	     -0.00000297	      0.00000000	    -21.48128170	      2.89970282	      5.12647508	    -11.92816775	     12.02031845	      0.00000296	      0.00000000	    -15.99734812	     -1.84421668	     -6.70312552
      0.70000000	      3.81057380	      2.07894791	      2.74305079	      0.59500870	      1.00694913	     -0.00100318	     22.14602596	     -4.19723839	     -5.98735018	    -16.82241096	     -1.73677506	     -0.00000337	      0.00000000	    -21.21721072	      2.37423883	      5.50202532	    -15.39030819	     11.23848755	      0.00000359	      0.00000000	    -16.12418992	     -1.14896679	     -6.80132840
      0.71700000	      4.09130987	      1.81281874	      2.96157523	      0.59805955	      1.00874193	      0.00142268	     21.70348271	     -3.91875528	     -6.04484089	    -19.16704484	     -1.62234774	     -0.00000356	      0.00000000	    -20.34482621	      1.93489154	      5.57817473	    -19.83809169	      9.98074685	      0.00000447	      0.00000000	    -16.13228188	     -0.33698157	     -6.92003419
      0.73300000	      4.20550208	      1.66187129	      3.13347461	      0.60029187	      1.01032295	      0.00448026	     21.33601355	     -3.71251916	     -6.12283453	    -21.27074682	     -1.18431624	     -0.00000345	      0.00000000	    -18.33988888	      1.63907184	      5.26811342	    -25.81771645	      8.23857320	      0.00000571	      0.00000000	    -16.04503518	      0.15074749	     -6.77614925
      0.75000000	      4.28806517	      1.39342895	      3.20028064	      0.60293811	      1.01223345	      0.00760715	     20.56949615	     -3.32654423	     -6.31081348	    -22.62859567	     -0.48407009	     -0.00000303	      0.00000000	    -15.90573718	      1.14482040	      4.31307872	    -32.11655550	      5.45831396	      0.00000677	      0.00000000	    -15.86757005	      0.67716467	     -6.97188300
      0.76700000	      4.20487787	      1.05679750	      3.30236697	      0.60485609	      1.01398709	      0.01056790	     19.81210137	     -2.84689060	     -6.51559827	    -23.62302965	      0.51137599	     -0.00000272	      0.00000000	    -12.72071491	      0.36319777	      2.85752682	    -38.85834566	      1.83207816	      0.00000766	      0.00000000	    -15.62565179	      1.30897784	     -6.64467249
      0.78300000	      4.14444383	      0.48094055	      3.38550418	      0.60542709	      1.01575973	      0.01407783	     18.77637158	     -2.02337145	     -6.82545085	    -23.91570547	      1.43031044	     -0.00000241	      0.00000000	     -9.29682726	     -0.94991983	      1.13244672	    -45.36579310	     -2.06083444	      0.00000755	      0.00000000	    -15.46856650	      2.03035089	     -6.25625814
      0.80000000	      4.16383354	     -0.28591891	      3.28687093	      0.60595202	      1.01753755	      0.01778021	     17.61750295	     -0.89524857	     -6.92886655	    -24.07165380	      2.50119050	     -0.00000243	      0.00000000	     -5.98195765	     -2.69020537	     -0.78730231	    -51.31283037	     -5.44550881	      0.00000660	      0.00000000	    -15.37987267	      2.91900467	     -5.44907231
      0.81700000	      4.24686522	     -1.10129259	      3.34690436	      0.60619645	      1.01993902	      0.02160706	     16.02740990	      0.30429406	     -7.18538053	    -23.46486722	      3.33956908	     -0.00000245	      0.00000000	     -2.97243397	     -4.53996559	     -2.11921170	    -56.30445251	     -7.43216858	      0.00000440	      0.00000000	    -15.22195844	      3.78052945	     -5.32659189
